<svg width="69" height="52" viewBox="0 0 69 52" fill="none" xmlns="http://www.w3.org/2000/svg">
<path d="M27.7615 17.3017C31.8188 15.4655 36.4703 15.4655 40.5276 17.3017L64.8772 28.3214C69.4264 30.3802 69.4264 36.8408 64.8772 38.8996L40.5276 49.9193C36.4703 51.7555 31.8188 51.7555 27.7615 49.9193L3.41188 38.8996C-1.13729 36.8408 -1.13729 30.3802 3.41188 28.3214L27.7615 17.3017Z" fill="#FF7353"/>
<path d="M27.7615 1.97455C31.8188 0.138367 36.4703 0.138367 40.5276 1.97455L64.8772 12.9943C69.4264 15.053 69.4264 21.5137 64.8772 23.5725L40.5276 34.5922C36.4703 36.4284 31.8188 36.4284 27.7615 34.5922L3.41188 23.5725C-1.13729 21.5137 -1.13729 15.053 3.41188 12.9943L27.7615 1.97455Z" fill="white"/>
</svg>
